<?xml version="1.0" encoding="utf-8"?><!-- Uploaded to: SVG Repo, www.svgrepo.com, Generator: SVG Repo Mixer Tools -->
<svg fill="#000000" width="800px" height="800px" viewBox="0 0 24 24" id="warning-alt" data-name="Flat Color" xmlns="http://www.w3.org/2000/svg" class="icon flat-color"><path id="primary" d="M22.25,17.55,14.63,3.71a3,3,0,0,0-5.26,0L1.75,17.55A3,3,0,0,0,4.38,22H19.62a3,3,0,0,0,2.63-4.45Z" style="fill: rgb(0, 0, 0);"></path><path id="secondary" d="M11,13V9a1,1,0,0,1,2,0v4a1,1,0,0,1-2,0Zm1,2.5A1.5,1.5,0,1,0,13.5,17,1.5,1.5,0,0,0,12,15.5Z" style="fill: rgb(44, 169, 188);"></path></svg>